<?xml version="1.0" encoding="UTF-8" standalone="no"?>
<!-- Created with Inkscape (http://www.inkscape.org/) -->

<svg
   width="48"
   height="48"
   viewBox="0 0 48 48"
   version="1.1"
   id="svg1"
   inkscape:version="1.3.2 (091e20e, 2023-11-25, custom)"
   sodipodi:docname="logo.svg"
   xmlns:inkscape="http://www.inkscape.org/namespaces/inkscape"
   xmlns:sodipodi="http://sodipodi.sourceforge.net/DTD/sodipodi-0.dtd"
   xmlns:xlink="http://www.w3.org/1999/xlink"
   xmlns="http://www.w3.org/2000/svg"
   xmlns:svg="http://www.w3.org/2000/svg">
  <sodipodi:namedview
     id="namedview1"
     pagecolor="#ffffff"
     bordercolor="#000000"
     borderopacity="0.25"
     inkscape:showpageshadow="2"
     inkscape:pageopacity="0.0"
     inkscape:pagecheckerboard="0"
     inkscape:deskcolor="#d1d1d1"
     inkscape:document-units="px"
     inkscape:zoom="17.279922"
     inkscape:cx="23.726959"
     inkscape:cy="24.045247"
     inkscape:window-width="2560"
     inkscape:window-height="1369"
     inkscape:window-x="-8"
     inkscape:window-y="-8"
     inkscape:window-maximized="1"
     inkscape:current-layer="layer1" />
  <defs
     id="defs1">
    <linearGradient
       id="linearGradient325"
       inkscape:collect="always">
      <stop
         style="stop-color:#ff0000;stop-opacity:1;"
         offset="0"
         id="stop325" />
      <stop
         style="stop-color:#ff7e00;stop-opacity:1;"
         offset="0.57370174"
         id="stop327" />
      <stop
         style="stop-color:#ffff00;stop-opacity:1;"
         offset="1"
         id="stop326" />
    </linearGradient>
    <linearGradient
       inkscape:collect="always"
       xlink:href="#linearGradient325"
       id="linearGradient326"
       x1="3.584796"
       y1="24"
       x2="44.415204"
       y2="24"
       gradientUnits="userSpaceOnUse" />
    <linearGradient
       inkscape:collect="always"
       xlink:href="#linearGradient325"
       id="linearGradient330"
       x1="4.8498597"
       y1="32.915318"
       x2="45.382763"
       y2="32.915318"
       gradientUnits="userSpaceOnUse"
       gradientTransform="matrix(1.0924128,-0.08427732,0.08427732,1.0924128,-6.3971736,-3.1580974)" />
  </defs>
  <g
     inkscape:label="Layer 1"
     inkscape:groupmode="layer"
     id="layer1">
    <g
       id="g330">
      <path
         style="fill:url(#linearGradient330);stroke:none;stroke-width:0.745048;stroke-linecap:square;stroke-dasharray:none;stroke-opacity:1"
         id="path327"
         d="m 4.8466742,31.121897 c 0.927053,-0.233896 1.8723487,-0.398257 2.8113517,-0.573619 0.8789443,-0.164144 1.7544633,-0.34867 2.6378151,-0.487139 2.127326,-0.333465 5.339007,-0.693159 7.432701,-0.942002 1.380575,-0.15109 2.760253,-0.310627 4.141725,-0.453284 1.613981,-0.166671 6.493314,-0.627155 8.138764,-0.770412 2.406544,-0.20952 4.91735,-0.412331 7.333269,-0.538104 0.981273,-0.05109 1.963815,-0.07387 2.945722,-0.110819 1.14328,0.0024 2.778624,-0.0492 3.965314,0.12754 0.34528,0.05143 1.321977,0.432678 1.010504,0.275048 -1.021911,-0.517164 -2.055111,-1.041623 -3.155171,-1.360412 -0.218705,-0.06339 -0.419925,0.176231 -0.630272,0.263422 -0.553172,0.229292 -1.106855,0.457351 -1.660281,0.686027 -2.10741,0.607625 -3.225211,0.960224 -5.449405,1.45598 -1.122366,0.250165 -2.253363,0.460598 -3.384158,0.669377 -3.043312,0.561892 -6.107384,1.009602 -9.1668,1.472475 -1.962966,0.307373 -3.927515,0.606861 -5.878659,0.983798 -0.703348,0.135884 -1.32676,0.261133 -2.010912,0.445139 -0.191424,0.05149 -0.37929,0.115397 -0.568935,0.173084 -0.10724,0.05516 -0.421053,0.09712 -0.321721,0.165494 1.169709,0.805321 2.389097,1.554871 3.680051,2.146648 0.242261,0.111053 0.528789,-0.06714 0.79374,-0.09585 0.456953,-0.0495 0.914937,-0.08918 1.37188,-0.138765 1.735449,-0.188318 2.487164,-0.288245 4.290737,-0.510287 3.529361,-0.442532 7.064217,-0.845855 10.607473,-1.160702 1.728975,-0.153627 2.307283,-0.18733 3.962777,-0.303513 0,0 -2.541525,-1.547236 -2.541525,-1.547236 v 0 c -0.507986,0.09306 -1.014643,0.193688 -1.523957,0.27917 -4.152458,0.696935 -8.345512,1.140164 -12.540349,1.482649 -1.934651,0.09635 -2.958886,0.18704 -4.85022,0.140107 -0.573485,-0.01423 -1.147784,-0.04153 -1.717606,-0.107804 -0.365222,-0.04247 -1.358634,-0.459192 -1.08135,-0.217726 2.748379,2.393377 2.333062,2.838418 3.145583,1.738201 0.133759,-0.07974 0.263089,-0.167447 0.401277,-0.239251 0.496206,-0.257832 1.055508,-0.482082 1.577583,-0.665618 1.680197,-0.590685 3.416182,-0.997527 5.148787,-1.399414 0.839514,-0.182679 1.677885,-0.370704 2.518545,-0.548038 3.199922,-0.675008 6.412762,-1.304063 9.640451,-1.832313 1.155132,-0.189052 2.316129,-0.340805 3.471784,-0.526624 0.926003,-0.148888 1.848589,-0.318305 2.772884,-0.477458 0.745695,-0.133444 1.507549,-0.196251 2.237081,-0.400333 0.49072,-0.137273 1.72791,-0.227775 1.398739,-0.61675 -0.857963,-1.013827 -2.300655,-1.337424 -3.512468,-1.880977 -0.20433,-0.09165 -0.448374,-0.01083 -0.671817,0.0041 -0.901087,0.06039 -2.392283,0.266944 -3.203204,0.369592 -0.860664,0.112003 -1.720468,0.230811 -2.581991,0.335997 -2.867034,0.350045 -4.014737,0.45557 -6.966074,0.764788 -2.672483,0.280005 -5.343263,0.576469 -8.016867,0.845554 -1.406977,0.141604 -2.815369,0.268783 -4.223052,0.403179 -1.384076,0.113198 -2.766782,0.244624 -4.152233,0.339533 -3.4746275,0.237998 -3.9369346,0.22496 -7.2657957,0.260382 -1.2645288,0.01346 -2.5304353,0.02517 -3.7941898,-0.03359 z" />
      <text
         xml:space="preserve"
         style="font-weight:bold;font-size:19.2px;line-height:1.1;font-family:Gotham;-inkscape-font-specification:'Gotham Bold';text-align:end;letter-spacing:-1.06px;word-spacing:0.03px;text-anchor:end;fill:#383b3b;stroke-width:0.68;stroke-linecap:square;stroke-dasharray:none;stroke:url(#linearGradient326);stroke-opacity:1"
         x="45.55761"
         y="27.7428"
         id="text1"><tspan
           sodipodi:role="line"
           id="tspan1"
           x="44.497612"
           y="27.7428"
           style="font-style:normal;font-variant:normal;font-weight:bold;font-stretch:normal;font-size:19.2px;line-height:1.1;font-family:'Gotham Rounded SSm';-inkscape-font-specification:'Gotham Rounded SSm Bold';letter-spacing:-1.06px;word-spacing:0.03px;stroke:url(#linearGradient326);stroke-width:0.68;stroke-dasharray:none;stroke-opacity:1"
           dx="1.97"
           dy="0.029999999"
           rotate="0 0 0 0">npm</tspan></text>
    </g>
  </g>
</svg>
